<?xml version="1.0" encoding="utf-8"?>
<!-- Generator: Adobe Illustrator 16.0.0, SVG Export Plug-In . SVG Version: 6.00 Build 0)  -->
<!DOCTYPE svg PUBLIC "-//W3C//DTD SVG 1.1//EN" "http://www.w3.org/Graphics/SVG/1.1/DTD/svg11.dtd">
<svg version="1.1" id="svg3316" xmlns:svg="http://www.w3.org/2000/svg"
	 xmlns="http://www.w3.org/2000/svg" xmlns:xlink="http://www.w3.org/1999/xlink" x="0px" y="0px" width="325px" height="40px"
	 viewBox="0 0 325 40" enable-background="new 0 0 325 40" xml:space="preserve">
<g id="layer1" transform="translate(-106.8928,-154.992)">
	<g id="g4883" transform="translate(1.337025,0.917875)">
		<g id="use407" transform="matrix(1.2499999,0,0,1.2499999,-103.07788,95.07989)">
		</g>
		<g id="use409" transform="matrix(1.2499999,0,0,1.2499999,-103.07788,95.07989)">
		</g>
		<g id="use411" transform="matrix(1.2499999,0,0,1.2499999,-103.07788,95.07989)">
		</g>
		<g id="use413" transform="matrix(1.2499999,0,0,1.2499999,-103.07788,95.07989)">
		</g>
		<g id="use415" transform="matrix(1.2499999,0,0,1.2499999,-103.07788,95.07989)">
		</g>
		<g id="use417" transform="matrix(1.2499999,0,0,1.2499999,-103.07788,95.07989)">
		</g>
		<g id="use419" transform="matrix(1.2499999,0,0,1.2499999,-103.07788,95.07989)">
		</g>
		<g id="use421" transform="matrix(1.2499999,0,0,1.2499999,-103.07788,95.07989)">
		</g>
		<g id="use425" transform="matrix(1.2499999,0,0,1.2499999,-103.07788,95.07989)">
		</g>
		<g id="use429" transform="matrix(1.2499999,0,0,1.2499999,-103.07788,95.07989)">
		</g>
		<g id="use431" transform="matrix(1.2499999,0,0,1.2499999,-103.07788,95.07989)">
		</g>
		<g id="use433" transform="matrix(1.2499999,0,0,1.2499999,-103.07788,95.07989)">
		</g>
		<g id="use435" transform="matrix(1.2499999,0,0,1.2499999,-103.07788,95.07989)">
		</g>
		<g id="use443" transform="matrix(1.2499999,0,0,1.2499999,-103.07788,95.07989)">
		</g>
		<g id="use445" transform="matrix(1.2499999,0,0,1.2499999,-103.07788,95.07989)">
		</g>
		<g id="use447" transform="matrix(1.2499999,0,0,1.2499999,-103.07788,95.07989)">
		</g>
		<g id="use449" transform="matrix(1.2499999,0,0,1.2499999,-103.07788,95.07989)">
		</g>
		<g id="use451" transform="matrix(1.2499999,0,0,1.2499999,-103.07788,95.07989)">
		</g>
		<g id="use453" transform="matrix(1.2499999,0,0,1.2499999,-103.07788,95.07989)">
		</g>
		<g id="use455" transform="matrix(1.2499999,0,0,1.2499999,-103.07788,95.07989)">
		</g>
		<g id="use457" transform="matrix(1.2499999,0,0,1.2499999,-103.07788,95.07989)">
		</g>
		<g id="use459" transform="matrix(1.2499999,0,0,1.2499999,-103.07788,95.07989)">
		</g>
		<g id="use461" transform="matrix(1.2499999,0,0,1.2499999,-103.07788,95.07989)">
		</g>
		<g id="use469" transform="matrix(1.2499999,0,0,1.2499999,-103.07788,95.07989)">
		</g>
		<g id="use471" transform="matrix(1.2499999,0,0,1.2499999,-103.07788,95.07989)">
		</g>
		<g id="use473" transform="matrix(1.2499999,0,0,1.2499999,-103.07788,95.07989)">
		</g>
		<g id="use475" transform="matrix(1.2499999,0,0,1.2499999,-103.07788,95.07989)">
		</g>
		<g id="use477" transform="matrix(1.2499999,0,0,1.2499999,-103.07788,95.07989)">
		</g>
		<g id="use485" transform="matrix(1.2499999,0,0,1.2499999,-103.07788,95.07989)">
		</g>
		<g id="use487" transform="matrix(1.2499999,0,0,1.2499999,-103.07788,95.07989)">
		</g>
		<g id="use489" transform="matrix(1.2499999,0,0,1.2499999,-103.07788,95.07989)">
		</g>
		<g id="use491" transform="matrix(1.2499999,0,0,1.2499999,-103.07788,95.07989)">
		</g>
		<g id="use493" transform="matrix(1.2499999,0,0,1.2499999,-103.07788,95.07989)">
		</g>
		<g id="use495" transform="matrix(1.2499999,0,0,1.2499999,-103.07788,95.07989)">
		</g>
		<g id="use497" transform="matrix(1.2499999,0,0,1.2499999,-103.07788,95.07989)">
		</g>
		<g id="use499" transform="matrix(1.2499999,0,0,1.2499999,-103.07788,95.07989)">
		</g>
		<g id="use501" transform="matrix(1.2499999,0,0,1.2499999,-103.07788,95.07989)">
		</g>
		<g id="use503" transform="matrix(1.2499999,0,0,1.2499999,-103.07788,95.07989)">
		</g>
		<g id="use505" transform="matrix(1.2499999,0,0,1.2499999,-103.07788,95.07989)">
		</g>
		<g id="use507" transform="matrix(1.2499999,0,0,1.2499999,-103.07788,95.07989)">
		</g>
		<g id="use511" transform="matrix(1.2499999,0,0,1.2499999,-103.07788,95.07989)">
		</g>
		<g id="use515" transform="matrix(1.2499999,0,0,1.2499999,-103.07788,95.07989)">
		</g>
		<g id="use517" transform="matrix(1.2499999,0,0,1.2499999,-103.07788,95.07989)">
		</g>
		<g id="use519" transform="matrix(1.2499999,0,0,1.2499999,-103.07788,95.07989)">
		</g>
		<g id="use521" transform="matrix(1.2499999,0,0,1.2499999,-103.07788,95.07989)">
		</g>
		<path id="path523" d="M142.322,154.992h-35.43v35.239h35.43V154.992z M108.358,175.915c0-1.177,0.952-2.129,2.129-2.129
			s2.129,0.952,2.129,2.129s-0.952,2.129-2.129,2.129S108.358,177.092,108.358,175.915z M110.486,183.303
			c1.177,0,2.129-0.957,2.129-2.129c0-1.177-0.952-2.129-2.129-2.129s-2.129,0.952-2.129,2.129
			C108.358,182.346,109.31,183.303,110.486,183.303z M108.358,186.428c0-1.172,0.952-2.124,2.129-2.124s2.129,0.952,2.129,2.124
			c0,1.177-0.952,2.129-2.129,2.129S108.358,187.604,108.358,186.428z M121.053,178.044c1.177,0,2.129-0.952,2.129-2.129
			s-0.952-2.129-2.129-2.129s-2.129,0.952-2.129,2.129S119.876,178.044,121.053,178.044z M118.924,186.428
			c0-1.172,0.952-2.124,2.129-2.124s2.129,0.952,2.129,2.124c0,1.177-0.952,2.129-2.129,2.129S118.924,187.604,118.924,186.428z
			 M128.167,178.044c1.172,0,2.129-0.952,2.129-2.129s-0.957-2.129-2.129-2.129c-1.177,0-2.129,0.952-2.129,2.129
			S126.99,178.044,128.167,178.044z M126.038,181.174c0-1.177,0.952-2.129,2.129-2.129c1.172,0,2.129,0.952,2.129,2.129
			c0,1.172-0.957,2.129-2.129,2.129C126.99,183.303,126.038,182.346,126.038,181.174z M133.445,183.303
			c1.177,0,2.129-0.957,2.129-2.129c0-1.177-0.952-2.129-2.129-2.129s-2.129,0.952-2.129,2.129
			C131.317,182.346,132.269,183.303,133.445,183.303z M131.317,186.428c0-1.172,0.952-2.124,2.129-2.124s2.129,0.952,2.129,2.124
			c0,1.177-0.952,2.129-2.129,2.129S131.317,187.604,131.317,186.428z M138.734,183.303c1.177,0,2.129-0.957,2.129-2.129
			c0-1.177-0.952-2.129-2.129-2.129s-2.129,0.952-2.129,2.129C136.605,182.346,137.557,183.303,138.734,183.303z M136.605,186.428
			c0-1.172,0.952-2.124,2.129-2.124s2.129,0.952,2.129,2.124c0,1.177-0.952,2.129-2.129,2.129S136.605,187.604,136.605,186.428z
			 M128.167,188.557c1.172,0,2.129-0.952,2.129-2.129c0-1.172-0.957-2.124-2.129-2.124c-1.177,0-2.129,0.952-2.129,2.124
			C126.038,187.604,126.99,188.557,128.167,188.557z M108.358,158.791c0-1.177,0.952-2.129,2.129-2.129s2.129,0.952,2.129,2.129
			s-0.952,2.129-2.129,2.129S108.358,159.968,108.358,158.791z M128.167,166.179c1.172,0,2.129-0.952,2.129-2.129
			s-0.957-2.129-2.129-2.129c-1.177,0-2.129,0.952-2.129,2.129S126.99,166.179,128.167,166.179z M126.038,169.309
			c0-1.177,0.952-2.129,2.129-2.129c1.172,0,2.129,0.952,2.129,2.129s-0.957,2.129-2.129,2.129
			C126.99,171.437,126.038,170.485,126.038,169.309z M133.445,166.179c1.177,0,2.129-0.952,2.129-2.129s-0.952-2.129-2.129-2.129
			s-2.129,0.952-2.129,2.129S132.269,166.179,133.445,166.179z M131.317,169.309c0-1.177,0.952-2.129,2.129-2.129
			s2.129,0.952,2.129,2.129s-0.952,2.129-2.129,2.129S131.317,170.485,131.317,169.309z M138.734,160.92
			c1.177,0,2.129-0.952,2.129-2.129s-0.952-2.129-2.129-2.129s-2.129,0.952-2.129,2.129S137.557,160.92,138.734,160.92z
			 M136.605,164.05c0-1.177,0.952-2.129,2.129-2.129s2.129,0.952,2.129,2.129s-0.952,2.129-2.129,2.129
			S136.605,165.226,136.605,164.05z M138.734,171.437c1.177,0,2.129-0.952,2.129-2.129s-0.952-2.129-2.129-2.129
			s-2.129,0.952-2.129,2.129S137.557,171.437,138.734,171.437z M118.924,164.05c0-1.177,0.952-2.129,2.129-2.129
			s2.129,0.952,2.129,2.129s-0.952,2.129-2.129,2.129S118.924,165.226,118.924,164.05z M121.053,171.437
			c1.177,0,2.129-0.952,2.129-2.129s-0.952-2.129-2.129-2.129s-2.129,0.952-2.129,2.129S119.876,171.437,121.053,171.437z
			 M108.358,164.05c0-1.177,0.952-2.129,2.129-2.129s2.129,0.952,2.129,2.129s-0.952,2.129-2.129,2.129
			S108.358,165.226,108.358,164.05z M110.486,171.437c1.177,0,2.129-0.952,2.129-2.129s-0.952-2.129-2.129-2.129
			s-2.129,0.952-2.129,2.129S109.31,171.437,110.486,171.437z M113.636,181.174c0-1.177,0.952-2.129,2.129-2.129
			s2.129,0.952,2.129,2.129c0,1.172-0.952,2.129-2.129,2.129S113.636,182.346,113.636,181.174z M115.765,166.179
			c1.177,0,2.129-0.952,2.129-2.129s-0.952-2.129-2.129-2.129s-2.129,0.952-2.129,2.129S114.588,166.179,115.765,166.179"/>
		<path id="path525" fill="#211E1E" d="M154.5,176.97c0,3.276,0.986,5.771,4.526,5.771s4.526-2.754,4.526-5.771v-9.639h-1.357v9.614
			c0,2.056-0.308,4.526-3.169,4.526c-2.729,0-3.169-2.231-3.169-4.526v-9.614H154.5V176.97z M166.785,182.585h1.27v-6.929
			c0-1.729,0.981-3.188,2.534-3.188c2.075,0,2.075,1.836,2.075,2.598v7.52h1.27v-7.476c0-0.742,0-3.823-3.081-3.823
			c-1.86,0-2.578,1.313-2.842,1.792h-0.044c-0.024-0.806-0.044-1.138-0.088-1.641h-1.182c0.024,1.162,0.088,2.295,0.088,3.457
			V182.585z M177.015,182.585h1.27v-11.147h-1.27V182.585z M176.883,168.967h1.528v-1.963h-1.528V168.967z M183.377,182.585h1.528
			l3.257-11.147h-1.27l-2.729,9.707h-0.044l-2.646-9.707h-1.353L183.377,182.585z M196.819,177.429c0-2.71-0.332-6.143-3.564-6.143
			c-1.88,0-3.955,1.528-3.955,5.728c0,1.113,0,5.728,4.37,5.728c1.333,0,2.075-0.352,2.603-0.635l-0.068-1.465
			c-0.635,0.566-1.68,0.918-2.402,0.918c-0.503,0-3.149,0-3.149-4.131H196.819z M190.652,176.247c0-1.44,0.811-3.779,2.534-3.779
			c1.03,0,2.275,0.83,2.275,3.779H190.652z M199.197,182.585h1.27v-7.017c0-2.056,0.918-2.925,2.93-2.925v-1.357
			c-1.226,0-2.163,0.327-2.974,1.924h-0.044c-0.02-0.459-0.063-1.113-0.088-1.772h-1.177c0.02,1.162,0.083,2.295,0.083,3.457
			V182.585z M210.062,171.613c-0.415-0.132-1.309-0.327-2.056-0.327c-1.484,0-3.276,0.986-3.276,3.081
			c0,1.572,0.742,2.163,2.622,3.105c1.313,0.654,1.987,1.089,1.987,2.163c0,1.006-0.85,1.924-2.051,1.924
			c-1.03,0-2.168-0.503-2.539-0.767l-0.171,1.421c0.654,0.239,1.44,0.527,2.817,0.527c1.88,0,3.301-1.226,3.301-3.237
			c0-1.792-1.182-2.358-2.71-3.193c-1.509-0.83-1.904-1.045-1.904-2.075c0-0.786,0.591-1.768,1.904-1.768
			c0.723,0,1.265,0.22,1.899,0.459L210.062,171.613z M213.079,182.585h1.265v-11.147h-1.265V182.585z M212.947,168.967h1.528v-1.963
			h-1.528V168.967z M217.996,169.211v2.227h-1.66v1.182h1.66v7.607c0,1.245,0.439,2.515,2.075,2.515
			c0.591,0,1.157-0.044,1.465-0.156v-1.265c-0.239,0.107-0.459,0.239-1.05,0.239c-1.069,0-1.221-0.786-1.221-1.685v-7.256h2.271
			v-1.182h-2.271v-2.622L217.996,169.211z M224.598,169.167h1.265v-2.144h-1.265V169.167z M227.874,169.167h1.27v-2.144h-1.27
			V169.167z M230.281,174.982c0-0.811,0-3.696-3.433-3.696c-1.226,0-2.012,0.415-3.062,0.986l0.195,1.353
			c0.132-0.112,1.313-1.157,2.798-1.157c2.319,0,2.319,2.012,2.319,3.408h-0.811c-1.597,0-5.376,0.063-5.376,3.628
			c0,1.816,1.377,3.237,3.105,3.237c1.44,0,2.358-0.527,3.125-1.753h0.044l0.088,1.597h1.138c-0.068-0.83-0.132-1.66-0.132-2.49
			V174.982z M229.1,178.278c0,3.042-2.188,3.281-2.778,3.281c-1.353,0-2.051-1.118-2.051-2.056c0-2.534,2.207-2.534,4.829-2.534
			V178.278z M233.777,169.211v2.227h-1.665v1.182h1.665v7.607c0,1.245,0.435,2.515,2.075,2.515c0.591,0,1.157-0.044,1.465-0.156
			v-1.265c-0.239,0.107-0.459,0.239-1.05,0.239c-1.069,0-1.226-0.786-1.226-1.685v-7.256h2.275v-1.182h-2.275v-2.622
			L233.777,169.211z M252.288,166.193h-1.27v6.689h-0.039c-0.571-1.03-1.401-1.597-2.822-1.597c-2.798,0-3.696,3.193-3.696,5.312
			c0,1.548,0.132,6.143,3.765,6.143c1.396,0,2.095-0.635,2.925-1.685h0.044v1.528h1.182c-0.044-0.962-0.088-1.943-0.088-3.691
			V166.193z M245.818,177.014c0-2.578,0.654-4.546,2.559-4.546c2.729,0,2.729,3.188,2.729,4.678c0,2.271-0.586,4.414-2.754,4.414
			C245.818,181.559,245.818,177.932,245.818,177.014z M262.103,177.429c0-2.71-0.327-6.143-3.564-6.143
			c-1.88,0-3.955,1.528-3.955,5.728c0,1.113,0,5.728,4.37,5.728c1.333,0,2.08-0.352,2.603-0.635l-0.063-1.465
			c-0.635,0.566-1.685,0.918-2.407,0.918c-0.503,0-3.145,0-3.145-4.131H262.103z M255.941,176.247c0-1.44,0.806-3.779,2.534-3.779
			c1.025,0,2.271,0.83,2.271,3.779H255.941z M264.485,182.585h1.265v-7.017c0-2.056,0.923-2.925,2.93-2.925v-1.357
			c-1.221,0-2.163,0.327-2.974,1.924h-0.039c-0.024-0.459-0.068-1.113-0.088-1.772h-1.182c0.024,1.162,0.088,2.295,0.088,3.457
			V182.585z M276.595,182.585h1.353v-7.476h0.044l5.879,7.476h1.792l-6.597-7.998l6.094-7.256h-1.66l-5.508,6.685h-0.044v-6.685
			h-1.353V182.585z M288.572,169.167h1.265v-2.144h-1.265V169.167z M291.849,169.167h1.27v-2.144h-1.27V169.167z M294.407,171.437
			h-1.27v6.929c0,1.729-0.981,3.193-2.534,3.193c-2.075,0-2.075-1.836-2.075-2.603v-7.52h-1.27v7.783
			c0,1.768,0.654,3.521,3.081,3.521c1.86,0,2.71-1.313,2.842-1.797h0.044c0.024,0.811,0.044,1.138,0.088,1.641h1.182
			c-0.024-1.157-0.088-2.295-0.088-3.452V171.437z M297.381,182.585h1.265v-6.929c0-1.729,0.986-3.188,2.534-3.188
			c2.08,0,2.08,1.836,2.08,2.598v7.52h1.265v-7.476c0-0.742,0-3.823-3.081-3.823c-1.855,0-2.578,1.313-2.842,1.792h-0.044
			c-0.02-0.806-0.044-1.138-0.088-1.641h-1.177c0.02,1.162,0.088,2.295,0.088,3.457V182.585z M312.288,171.613
			c-0.42-0.132-1.313-0.327-2.056-0.327c-1.489,0-3.281,0.986-3.281,3.081c0,1.572,0.747,2.163,2.622,3.105
			c1.313,0.654,1.992,1.089,1.992,2.163c0,1.006-0.854,1.924-2.056,1.924c-1.025,0-2.163-0.503-2.534-0.767l-0.176,1.421
			c0.654,0.239,1.44,0.527,2.817,0.527c1.88,0,3.301-1.226,3.301-3.237c0-1.792-1.177-2.358-2.71-3.193
			c-1.509-0.83-1.899-1.045-1.899-2.075c0-0.786,0.591-1.768,1.899-1.768c0.723,0,1.27,0.22,1.904,0.459L312.288,171.613z
			 M315.76,169.211v2.227h-1.66v1.182h1.66v7.607c0,1.245,0.439,2.515,2.075,2.515c0.591,0,1.162-0.044,1.465-0.156v-1.265
			c-0.239,0.107-0.459,0.239-1.05,0.239c-1.069,0-1.221-0.786-1.221-1.685v-7.256h2.271v-1.182h-2.271v-2.622L315.76,169.211z
			 M328.196,177.429c0-2.71-0.327-6.143-3.56-6.143c-1.88,0-3.96,1.528-3.96,5.728c0,1.113,0,5.728,4.375,5.728
			c1.333,0,2.075-0.352,2.598-0.635l-0.063-1.465c-0.635,0.566-1.685,0.918-2.407,0.918c-0.498,0-3.145,0-3.145-4.131H328.196z
			 M322.034,176.247c0-1.44,0.806-3.779,2.534-3.779c1.025,0,2.275,0.83,2.275,3.779H322.034z M337.967,168.596h1.899
			c1.992,0,2.778,1.162,2.778,2.603c0,1.816-1.226,2.842-2.822,2.842h-1.855V168.596z M337.967,175.309h2.075
			c1.88,0,2.93,1.289,2.93,3.081c0,0.479-0.132,2.93-3.081,2.93h-1.924V175.309z M336.614,182.585h2.622
			c1.089,0,5.181,0,5.181-4.263c0-2.227-1.338-3.32-2.734-3.716v-0.039c0.962-0.396,2.402-1.27,2.402-3.545
			c0-1.88-1.245-3.691-3.911-3.691h-3.56V182.585z M354.207,177.429c0-2.71-0.327-6.143-3.564-6.143
			c-1.88,0-3.955,1.528-3.955,5.728c0,1.113,0,5.728,4.37,5.728c1.333,0,2.08-0.352,2.603-0.635l-0.063-1.465
			c-0.635,0.566-1.685,0.918-2.407,0.918c-0.503,0-3.145,0-3.145-4.131H354.207z M348.045,176.247c0-1.44,0.806-3.779,2.534-3.779
			c1.025,0,2.271,0.83,2.271,3.779H348.045z M356.59,182.585h1.27v-7.017c0-2.056,0.913-2.925,2.925-2.925v-1.357
			c-1.226,0-2.163,0.327-2.969,1.924h-0.044c-0.024-0.459-0.068-1.113-0.088-1.772h-1.182c0.02,1.162,0.088,2.295,0.088,3.457
			V182.585z M362.776,182.585h1.265v-16.392h-1.265V182.585z M367.234,182.585h1.265v-11.147h-1.265V182.585z M367.103,168.967
			h1.528v-1.963h-1.528V168.967z M371.58,182.585h1.27v-6.929c0-1.729,0.981-3.188,2.534-3.188c2.08,0,2.08,1.836,2.08,2.598v7.52
			h1.265v-7.476c0-0.742,0-3.823-3.081-3.823c-1.855,0-2.578,1.313-2.842,1.792h-0.044c-0.02-0.806-0.044-1.138-0.088-1.641h-1.182
			c0.024,1.162,0.088,2.295,0.088,3.457V182.585"/>
		<path id="path527" fill="#211E1E" d="M154.469,189.094v0.688h238.375v3.375h36.375v-4.062H154.469z"/>
	</g>
</g>
</svg>
